<svg xmlns="http://www.w3.org/2000/svg" version="1.1" xmlns:xlink="http://www.w3.org/1999/xlink" xmlns:svgjs="http://svgjs.com/svgjs" width="1440" height="727" preserveAspectRatio="none" viewBox="0 0 1440 727"><g mask="url(&quot;#SvgjsMask1346&quot;)" fill="none"><rect width="1440" height="727" x="0" y="0" fill="#0e2a47"></rect><path d="M-59.25 711.21L-59.25 711.21" stroke="#132e65" stroke-width="1.5"></path><path d="M-59.25 711.21L-66.84 844.86" stroke="#132e65" stroke-width="1.5"></path><path d="M-59.25 711.21L86.64 637.59" stroke="#132e65" stroke-width="1.5"></path><path d="M-59.25 711.21L61.86 858.31" stroke="#132e65" stroke-width="1.5"></path><path d="M-59.25 711.21L55.05 488.12" stroke="#132e65" stroke-width="1.5"></path><path d="M-59.25 711.21L242.26 669.62" stroke="#132e65" stroke-width="1.5"></path><path d="M-66.84 844.86L-66.84 844.86" stroke="#132e65" stroke-width="1.5"></path><path d="M-66.84 844.86L61.86 858.31" stroke="#132e65" stroke-width="1.5"></path><path d="M55.05 488.12L55.05 488.12" stroke="#132e65" stroke-width="1.5"></path><path d="M55.05 488.12L191.43 525.01" stroke="#132e65" stroke-width="1.5"></path><path d="M55.05 488.12L86.64 637.59" stroke="#132e65" stroke-width="1.5"></path><path d="M55.05 488.12L242.26 669.62" stroke="#132e65" stroke-width="1.5"></path><path d="M55.05 488.12L411.14 530.5" stroke="#132e65" stroke-width="1.5"></path><path d="M86.64 637.59L86.64 637.59" stroke="#132e65" stroke-width="1.5"></path><path d="M86.64 637.59L191.43 525.01" stroke="#132e65" stroke-width="1.5"></path><path d="M61.86 858.31L61.86 858.31" stroke="#132e65" stroke-width="1.5"></path><path d="M61.86 858.31L227.33 835.15" stroke="#132e65" stroke-width="1.5"></path><path d="M61.86 858.31L86.64 637.59" stroke="#132e65" stroke-width="1.5"></path><path d="M191.43 525.01L191.43 525.01" stroke="#132e65" stroke-width="1.5"></path><path d="M191.43 525.01L242.26 669.62" stroke="#132e65" stroke-width="1.5"></path><path d="M191.43 525.01L411.14 530.5" stroke="#132e65" stroke-width="1.5"></path><path d="M191.43 525.01L382.31 640.5" stroke="#132e65" stroke-width="1.5"></path><path d="M242.26 669.62L242.26 669.62" stroke="#132e65" stroke-width="1.5"></path><path d="M242.26 669.62L382.31 640.5" stroke="#132e65" stroke-width="1.5"></path><path d="M227.33 835.15L227.33 835.15" stroke="#132e65" stroke-width="1.5"></path><path d="M227.33 835.15L242.26 669.62" stroke="#132e65" stroke-width="1.5"></path><path d="M227.33 835.15L409.84 816.96" stroke="#132e65" stroke-width="1.5"></path><path d="M411.14 530.5L411.14 530.5" stroke="#132e65" stroke-width="1.5"></path><path d="M411.14 530.5L493.27 488.21" stroke="#132e65" stroke-width="1.5"></path><path d="M411.14 530.5L382.31 640.5" stroke="#132e65" stroke-width="1.5"></path><path d="M411.14 530.5L520.5 664.88" stroke="#132e65" stroke-width="1.5"></path><path d="M411.14 530.5L242.26 669.62" stroke="#132e65" stroke-width="1.5"></path><path d="M382.31 640.5L382.31 640.5" stroke="#132e65" stroke-width="1.5"></path><path d="M382.31 640.5L520.5 664.88" stroke="#132e65" stroke-width="1.5"></path><path d="M382.31 640.5L409.84 816.96" stroke="#132e65" stroke-width="1.5"></path><path d="M409.84 816.96L409.84 816.96" stroke="#132e65" stroke-width="1.5"></path><path d="M409.84 816.96L522.1 834.94" stroke="#132e65" stroke-width="1.5"></path><path d="M409.84 816.96L520.5 664.88" stroke="#132e65" stroke-width="1.5"></path><path d="M559.18 341.15L559.18 341.15" stroke="#132e65" stroke-width="1.5"></path><path d="M559.18 341.15L641.42 371.39" stroke="#132e65" stroke-width="1.5"></path><path d="M559.18 341.15L493.27 488.21" stroke="#132e65" stroke-width="1.5"></path><path d="M559.18 341.15L411.14 530.5" stroke="#132e65" stroke-width="1.5"></path><path d="M559.18 341.15L669.66 555.68" stroke="#132e65" stroke-width="1.5"></path><path d="M559.18 341.15L804.67 338.3" stroke="#132e65" stroke-width="1.5"></path><path d="M493.27 488.21L493.27 488.21" stroke="#132e65" stroke-width="1.5"></path><path d="M520.5 664.88L520.5 664.88" stroke="#132e65" stroke-width="1.5"></path><path d="M520.5 664.88L666.92 700.8" stroke="#132e65" stroke-width="1.5"></path><path d="M520.5 664.88L522.1 834.94" stroke="#132e65" stroke-width="1.5"></path><path d="M520.5 664.88L493.27 488.21" stroke="#132e65" stroke-width="1.5"></path><path d="M522.1 834.94L522.1 834.94" stroke="#132e65" stroke-width="1.5"></path><path d="M522.1 834.94L682.19 844.96" stroke="#132e65" stroke-width="1.5"></path><path d="M641.42 371.39L641.42 371.39" stroke="#132e65" stroke-width="1.5"></path><path d="M641.42 371.39L804.67 338.3" stroke="#132e65" stroke-width="1.5"></path><path d="M641.42 371.39L669.66 555.68" stroke="#132e65" stroke-width="1.5"></path><path d="M641.42 371.39L493.27 488.21" stroke="#132e65" stroke-width="1.5"></path><path d="M641.42 371.39L789.63 491.58" stroke="#132e65" stroke-width="1.5"></path><path d="M669.66 555.68L669.66 555.68" stroke="#132e65" stroke-width="1.5"></path><path d="M669.66 555.68L789.63 491.58" stroke="#132e65" stroke-width="1.5"></path><path d="M669.66 555.68L666.92 700.8" stroke="#132e65" stroke-width="1.5"></path><path d="M669.66 555.68L520.5 664.88" stroke="#132e65" stroke-width="1.5"></path><path d="M666.92 700.8L666.92 700.8" stroke="#132e65" stroke-width="1.5"></path><path d="M666.92 700.8L682.19 844.96" stroke="#132e65" stroke-width="1.5"></path><path d="M666.92 700.8L839.67 701.88" stroke="#132e65" stroke-width="1.5"></path><path d="M666.92 700.8L522.1 834.94" stroke="#132e65" stroke-width="1.5"></path><path d="M682.19 844.96L682.19 844.96" stroke="#132e65" stroke-width="1.5"></path><path d="M682.19 844.96L856.36 814.01" stroke="#132e65" stroke-width="1.5"></path><path d="M682.19 844.96L839.67 701.88" stroke="#132e65" stroke-width="1.5"></path><path d="M803.65 211.56L803.65 211.56" stroke="#132e65" stroke-width="1.5"></path><path d="M803.65 211.56L804.67 338.3" stroke="#132e65" stroke-width="1.5"></path><path d="M803.65 211.56L957.95 218.65" stroke="#132e65" stroke-width="1.5"></path><path d="M803.65 211.56L960.47 110.3" stroke="#132e65" stroke-width="1.5"></path><path d="M804.67 338.3L804.67 338.3" stroke="#132e65" stroke-width="1.5"></path><path d="M804.67 338.3L789.63 491.58" stroke="#132e65" stroke-width="1.5"></path><path d="M804.67 338.3L987.95 396.63" stroke="#132e65" stroke-width="1.5"></path><path d="M804.67 338.3L957.95 218.65" stroke="#132e65" stroke-width="1.5"></path><path d="M789.63 491.58L789.63 491.58" stroke="#132e65" stroke-width="1.5"></path><path d="M789.63 491.58L956.3 560.98" stroke="#132e65" stroke-width="1.5"></path><path d="M789.63 491.58L839.67 701.88" stroke="#132e65" stroke-width="1.5"></path><path d="M789.63 491.58L987.95 396.63" stroke="#132e65" stroke-width="1.5"></path><path d="M839.67 701.88L839.67 701.88" stroke="#132e65" stroke-width="1.5"></path><path d="M839.67 701.88L856.36 814.01" stroke="#132e65" stroke-width="1.5"></path><path d="M839.67 701.88L963.73 695.63" stroke="#132e65" stroke-width="1.5"></path><path d="M839.67 701.88L975.58 793.47" stroke="#132e65" stroke-width="1.5"></path><path d="M856.36 814.01L856.36 814.01" stroke="#132e65" stroke-width="1.5"></path><path d="M856.36 814.01L975.58 793.47" stroke="#132e65" stroke-width="1.5"></path><path d="M944.29 -61.26L944.29 -61.26" stroke="#132e65" stroke-width="1.5"></path><path d="M944.29 -61.26L960.47 110.3" stroke="#132e65" stroke-width="1.5"></path><path d="M944.29 -61.26L1116.29 -47.26" stroke="#132e65" stroke-width="1.5"></path><path d="M944.29 -61.26L1135.87 80.95" stroke="#132e65" stroke-width="1.5"></path><path d="M960.47 110.3L960.47 110.3" stroke="#132e65" stroke-width="1.5"></path><path d="M960.47 110.3L957.95 218.65" stroke="#132e65" stroke-width="1.5"></path><path d="M957.95 218.65L957.95 218.65" stroke="#132e65" stroke-width="1.5"></path><path d="M957.95 218.65L987.95 396.63" stroke="#132e65" stroke-width="1.5"></path><path d="M957.95 218.65L1147.06 198.95" stroke="#132e65" stroke-width="1.5"></path><path d="M957.95 218.65L1135.87 80.95" stroke="#132e65" stroke-width="1.5"></path><path d="M987.95 396.63L987.95 396.63" stroke="#132e65" stroke-width="1.5"></path><path d="M987.95 396.63L1145.46 400.4" stroke="#132e65" stroke-width="1.5"></path><path d="M987.95 396.63L956.3 560.98" stroke="#132e65" stroke-width="1.5"></path><path d="M987.95 396.63L1150.42 494.71" stroke="#132e65" stroke-width="1.5"></path><path d="M956.3 560.98L956.3 560.98" stroke="#132e65" stroke-width="1.5"></path><path d="M956.3 560.98L963.73 695.63" stroke="#132e65" stroke-width="1.5"></path><path d="M956.3 560.98L1107.36 663.26" stroke="#132e65" stroke-width="1.5"></path><path d="M963.73 695.63L963.73 695.63" stroke="#132e65" stroke-width="1.5"></path><path d="M963.73 695.63L975.58 793.47" stroke="#132e65" stroke-width="1.5"></path><path d="M975.58 793.47L975.58 793.47" stroke="#132e65" stroke-width="1.5"></path><path d="M975.58 793.47L1104.32 804.36" stroke="#132e65" stroke-width="1.5"></path><path d="M1116.29 -47.26L1116.29 -47.26" stroke="#132e65" stroke-width="1.5"></path><path d="M1116.29 -47.26L1135.87 80.95" stroke="#132e65" stroke-width="1.5"></path><path d="M1135.87 80.95L1135.87 80.95" stroke="#132e65" stroke-width="1.5"></path><path d="M1135.87 80.95L1238.84 63.43" stroke="#132e65" stroke-width="1.5"></path><path d="M1135.87 80.95L1147.06 198.95" stroke="#132e65" stroke-width="1.5"></path><path d="M1147.06 198.95L1147.06 198.95" stroke="#132e65" stroke-width="1.5"></path><path d="M1147.06 198.95L1266.61 218.64" stroke="#132e65" stroke-width="1.5"></path><path d="M1145.46 400.4L1145.46 400.4" stroke="#132e65" stroke-width="1.5"></path><path d="M1145.46 400.4L1150.42 494.71" stroke="#132e65" stroke-width="1.5"></path><path d="M1145.46 400.4L1275.63 371.79" stroke="#132e65" stroke-width="1.5"></path><path d="M1150.42 494.71L1150.42 494.71" stroke="#132e65" stroke-width="1.5"></path><path d="M1150.42 494.71L1107.36 663.26" stroke="#132e65" stroke-width="1.5"></path><path d="M1150.42 494.71L1275.63 371.79" stroke="#132e65" stroke-width="1.5"></path><path d="M1107.36 663.26L1107.36 663.26" stroke="#132e65" stroke-width="1.5"></path><path d="M1107.36 663.26L1104.32 804.36" stroke="#132e65" stroke-width="1.5"></path><path d="M1107.36 663.26L963.73 695.63" stroke="#132e65" stroke-width="1.5"></path><path d="M1104.32 804.36L1104.32 804.36" stroke="#132e65" stroke-width="1.5"></path><path d="M1104.32 804.36L963.73 695.63" stroke="#132e65" stroke-width="1.5"></path><path d="M1104.32 804.36L1308.71 849.29" stroke="#132e65" stroke-width="1.5"></path><path d="M1301.4 -75.82L1301.4 -75.82" stroke="#132e65" stroke-width="1.5"></path><path d="M1301.4 -75.82L1448.4 -81.18" stroke="#132e65" stroke-width="1.5"></path><path d="M1301.4 -75.82L1238.84 63.43" stroke="#132e65" stroke-width="1.5"></path><path d="M1301.4 -75.82L1116.29 -47.26" stroke="#132e65" stroke-width="1.5"></path><path d="M1301.4 -75.82L1429.09 64.55" stroke="#132e65" stroke-width="1.5"></path><path d="M1301.4 -75.82L1135.87 80.95" stroke="#132e65" stroke-width="1.5"></path><path d="M1238.84 63.43L1238.84 63.43" stroke="#132e65" stroke-width="1.5"></path><path d="M1238.84 63.43L1266.61 218.64" stroke="#132e65" stroke-width="1.5"></path><path d="M1238.84 63.43L1147.06 198.95" stroke="#132e65" stroke-width="1.5"></path><path d="M1238.84 63.43L1116.29 -47.26" stroke="#132e65" stroke-width="1.5"></path><path d="M1266.61 218.64L1266.61 218.64" stroke="#132e65" stroke-width="1.5"></path><path d="M1275.63 371.79L1275.63 371.79" stroke="#132e65" stroke-width="1.5"></path><path d="M1275.63 371.79L1390.06 361.93" stroke="#132e65" stroke-width="1.5"></path><path d="M1275.63 371.79L1266.61 218.64" stroke="#132e65" stroke-width="1.5"></path><path d="M1275.63 371.79L1427.15 247.28" stroke="#132e65" stroke-width="1.5"></path><path d="M1311.81 709.47L1311.81 709.47" stroke="#132e65" stroke-width="1.5"></path><path d="M1311.81 709.47L1308.71 849.29" stroke="#132e65" stroke-width="1.5"></path><path d="M1311.81 709.47L1457.96 685.08" stroke="#132e65" stroke-width="1.5"></path><path d="M1311.81 709.47L1434.89 841.99" stroke="#132e65" stroke-width="1.5"></path><path d="M1311.81 709.47L1107.36 663.26" stroke="#132e65" stroke-width="1.5"></path><path d="M1308.71 849.29L1308.71 849.29" stroke="#132e65" stroke-width="1.5"></path><path d="M1308.71 849.29L1434.89 841.99" stroke="#132e65" stroke-width="1.5"></path><path d="M1448.4 -81.18L1448.4 -81.18" stroke="#132e65" stroke-width="1.5"></path><path d="M1448.4 -81.18L1429.09 64.55" stroke="#132e65" stroke-width="1.5"></path><path d="M1448.4 -81.18L1598.55 -51.92" stroke="#132e65" stroke-width="1.5"></path><path d="M1448.4 -81.18L1561.53 56.97" stroke="#132e65" stroke-width="1.5"></path><path d="M1448.4 -81.18L1238.84 63.43" stroke="#132e65" stroke-width="1.5"></path><path d="M1429.09 64.55L1429.09 64.55" stroke="#132e65" stroke-width="1.5"></path><path d="M1429.09 64.55L1561.53 56.97" stroke="#132e65" stroke-width="1.5"></path><path d="M1429.09 64.55L1427.15 247.28" stroke="#132e65" stroke-width="1.5"></path><path d="M1429.09 64.55L1238.84 63.43" stroke="#132e65" stroke-width="1.5"></path><path d="M1429.09 64.55L1598.55 -51.92" stroke="#132e65" stroke-width="1.5"></path><path d="M1427.15 247.28L1427.15 247.28" stroke="#132e65" stroke-width="1.5"></path><path d="M1427.15 247.28L1390.06 361.93" stroke="#132e65" stroke-width="1.5"></path><path d="M1427.15 247.28L1266.61 218.64" stroke="#132e65" stroke-width="1.5"></path><path d="M1427.15 247.28L1601.4 262.21" stroke="#132e65" stroke-width="1.5"></path><path d="M1390.06 361.93L1390.06 361.93" stroke="#132e65" stroke-width="1.5"></path><path d="M1390.06 361.93L1451.5 535.48" stroke="#132e65" stroke-width="1.5"></path><path d="M1390.06 361.93L1266.61 218.64" stroke="#132e65" stroke-width="1.5"></path><path d="M1451.5 535.48L1451.5 535.48" stroke="#132e65" stroke-width="1.5"></path><path d="M1451.5 535.48L1457.96 685.08" stroke="#132e65" stroke-width="1.5"></path><path d="M1451.5 535.48L1601.89 542.39" stroke="#132e65" stroke-width="1.5"></path><path d="M1451.5 535.48L1573.3 682.65" stroke="#132e65" stroke-width="1.5"></path><path d="M1457.96 685.08L1457.96 685.08" stroke="#132e65" stroke-width="1.5"></path><path d="M1457.96 685.08L1573.3 682.65" stroke="#132e65" stroke-width="1.5"></path><path d="M1457.96 685.08L1434.89 841.99" stroke="#132e65" stroke-width="1.5"></path><path d="M1434.89 841.99L1434.89 841.99" stroke="#132e65" stroke-width="1.5"></path><path d="M1434.89 841.99L1538.12 861.55" stroke="#132e65" stroke-width="1.5"></path><path d="M1434.89 841.99L1573.3 682.65" stroke="#132e65" stroke-width="1.5"></path><path d="M1434.89 841.99L1451.5 535.48" stroke="#132e65" stroke-width="1.5"></path><path d="M1598.55 -51.92L1598.55 -51.92" stroke="#132e65" stroke-width="1.5"></path><path d="M1598.55 -51.92L1561.53 56.97" stroke="#132e65" stroke-width="1.5"></path><path d="M1598.55 -51.92L1301.4 -75.82" stroke="#132e65" stroke-width="1.5"></path><path d="M1598.55 -51.92L1601.4 262.21" stroke="#132e65" stroke-width="1.5"></path><path d="M1561.53 56.97L1561.53 56.97" stroke="#132e65" stroke-width="1.5"></path><path d="M1601.4 262.21L1601.4 262.21" stroke="#132e65" stroke-width="1.5"></path><path d="M1601.4 262.21L1561.53 56.97" stroke="#132e65" stroke-width="1.5"></path><path d="M1601.4 262.21L1390.06 361.93" stroke="#132e65" stroke-width="1.5"></path><path d="M1601.89 542.39L1601.89 542.39" stroke="#132e65" stroke-width="1.5"></path><path d="M1601.89 542.39L1573.3 682.65" stroke="#132e65" stroke-width="1.5"></path><path d="M1601.89 542.39L1457.96 685.08" stroke="#132e65" stroke-width="1.5"></path><path d="M1601.89 542.39L1390.06 361.93" stroke="#132e65" stroke-width="1.5"></path><path d="M1601.89 542.39L1601.4 262.21" stroke="#132e65" stroke-width="1.5"></path><path d="M1601.89 542.39L1538.12 861.55" stroke="#132e65" stroke-width="1.5"></path><path d="M1573.3 682.65L1573.3 682.65" stroke="#132e65" stroke-width="1.5"></path><path d="M1573.3 682.65L1538.12 861.55" stroke="#132e65" stroke-width="1.5"></path><path d="M1538.12 861.55L1538.12 861.55" stroke="#132e65" stroke-width="1.5"></path><path d="M1538.12 861.55L1457.96 685.08" stroke="#132e65" stroke-width="1.5"></path><path d="M1538.12 861.55L1308.71 849.29" stroke="#132e65" stroke-width="1.5"></path><path d="M1538.12 861.55L1311.81 709.47" stroke="#132e65" stroke-width="1.5"></path><circle r="5" cx="-59.25" cy="711.21" fill="#132e65"></circle><circle r="5" cx="-66.84" cy="844.86" fill="#132e65"></circle><circle r="5" cx="55.05" cy="488.12" fill="#132e65"></circle><circle r="5" cx="86.64" cy="637.59" fill="#132e65"></circle><circle r="5" cx="61.86" cy="858.31" fill="#132e65"></circle><circle r="5" cx="191.43" cy="525.01" fill="#132e65"></circle><circle r="5" cx="242.26" cy="669.62" fill="#132e65"></circle><circle r="5" cx="227.33" cy="835.15" fill="#132e65"></circle><circle r="5" cx="411.14" cy="530.5" fill="#132e65"></circle><circle r="5" cx="382.31" cy="640.5" fill="#132e65"></circle><circle r="5" cx="409.84" cy="816.96" fill="#132e65"></circle><circle r="5" cx="559.18" cy="341.15" fill="#132e65"></circle><circle r="5" cx="493.27" cy="488.21" fill="#132e65"></circle><circle r="5" cx="520.5" cy="664.88" fill="#132e65"></circle><circle r="5" cx="522.1" cy="834.94" fill="#132e65"></circle><circle r="5" cx="641.42" cy="371.39" fill="#132e65"></circle><circle r="5" cx="669.66" cy="555.68" fill="#132e65"></circle><circle r="5" cx="666.92" cy="700.8" fill="#132e65"></circle><circle r="5" cx="682.19" cy="844.96" fill="#132e65"></circle><circle r="5" cx="803.65" cy="211.56" fill="#132e65"></circle><circle r="5" cx="804.67" cy="338.3" fill="#132e65"></circle><circle r="5" cx="789.63" cy="491.58" fill="#132e65"></circle><circle r="5" cx="839.67" cy="701.88" fill="#132e65"></circle><circle r="5" cx="856.36" cy="814.01" fill="#132e65"></circle><circle r="5" cx="944.29" cy="-61.26" fill="#132e65"></circle><circle r="5" cx="960.47" cy="110.3" fill="#132e65"></circle><circle r="5" cx="957.95" cy="218.65" fill="#132e65"></circle><circle r="5" cx="987.95" cy="396.63" fill="#132e65"></circle><circle r="5" cx="956.3" cy="560.98" fill="#132e65"></circle><circle r="5" cx="963.73" cy="695.63" fill="#132e65"></circle><circle r="5" cx="975.58" cy="793.47" fill="#132e65"></circle><circle r="5" cx="1116.29" cy="-47.26" fill="#132e65"></circle><circle r="5" cx="1135.87" cy="80.95" fill="#132e65"></circle><circle r="5" cx="1147.06" cy="198.95" fill="#132e65"></circle><circle r="5" cx="1145.46" cy="400.4" fill="#132e65"></circle><circle r="5" cx="1150.42" cy="494.71" fill="#132e65"></circle><circle r="5" cx="1107.36" cy="663.26" fill="#132e65"></circle><circle r="5" cx="1104.32" cy="804.36" fill="#132e65"></circle><circle r="5" cx="1301.4" cy="-75.82" fill="#132e65"></circle><circle r="5" cx="1238.84" cy="63.43" fill="#132e65"></circle><circle r="5" cx="1266.61" cy="218.64" fill="#132e65"></circle><circle r="5" cx="1275.63" cy="371.79" fill="#132e65"></circle><circle r="5" cx="1311.81" cy="709.47" fill="#132e65"></circle><circle r="5" cx="1308.71" cy="849.29" fill="#132e65"></circle><circle r="5" cx="1448.4" cy="-81.18" fill="#132e65"></circle><circle r="5" cx="1429.09" cy="64.55" fill="#132e65"></circle><circle r="5" cx="1427.15" cy="247.28" fill="#132e65"></circle><circle r="5" cx="1390.06" cy="361.93" fill="#132e65"></circle><circle r="5" cx="1451.5" cy="535.48" fill="#132e65"></circle><circle r="5" cx="1457.96" cy="685.08" fill="#132e65"></circle><circle r="5" cx="1434.89" cy="841.99" fill="#132e65"></circle><circle r="5" cx="1598.55" cy="-51.92" fill="#132e65"></circle><circle r="5" cx="1561.53" cy="56.97" fill="#132e65"></circle><circle r="5" cx="1601.4" cy="262.21" fill="#132e65"></circle><circle r="5" cx="1601.89" cy="542.39" fill="#132e65"></circle><circle r="5" cx="1573.3" cy="682.65" fill="#132e65"></circle><circle r="5" cx="1538.12" cy="861.55" fill="#132e65"></circle><path d="M-47.49 823.11L-47.49 823.11" stroke="hsl(228.5, 77.2%, 51.5%)" stroke-width="1.5"></path><path d="M-47.49 823.11L64.94 852.19" stroke="hsl(228.5, 77.2%, 51.5%)" stroke-width="1.5"></path><path d="M-47.49 823.11L-100.08 701.26" stroke="hsl(228.5, 77.2%, 51.5%)" stroke-width="1.5"></path><path d="M-47.49 823.11L98.93 667.29" stroke="hsl(228.5, 77.2%, 51.5%)" stroke-width="1.5"></path><path d="M-47.49 823.11L259.26 793.01" stroke="hsl(228.5, 77.2%, 51.5%)" stroke-width="1.5"></path><path d="M844.15 526.97L844.15 526.97" stroke="hsl(228.5, 77.2%, 51.5%)" stroke-width="1.5"></path><path d="M844.15 526.97L954.5 511.8" stroke="hsl(228.5, 77.2%, 51.5%)" stroke-width="1.5"></path><path d="M844.15 526.97L853.57 659.24" stroke="hsl(228.5, 77.2%, 51.5%)" stroke-width="1.5"></path><path d="M844.15 526.97L698.04 495.73" stroke="hsl(228.5, 77.2%, 51.5%)" stroke-width="1.5"></path><path d="M844.15 526.97L953.74 677.33" stroke="hsl(228.5, 77.2%, 51.5%)" stroke-width="1.5"></path><path d="M798.44 845.56L798.44 845.56" stroke="hsl(228.5, 77.2%, 51.5%)" stroke-width="1.5"></path><path d="M798.44 845.56L710.86 837.16" stroke="hsl(228.5, 77.2%, 51.5%)" stroke-width="1.5"></path><path d="M973.41 838.55L973.41 838.55" stroke="hsl(228.5, 77.2%, 51.5%)" stroke-width="1.5"></path><path d="M973.41 838.55L1122.04 844.97" stroke="hsl(228.5, 77.2%, 51.5%)" stroke-width="1.5"></path><path d="M973.41 838.55L953.74 677.33" stroke="hsl(228.5, 77.2%, 51.5%)" stroke-width="1.5"></path><path d="M973.41 838.55L798.44 845.56" stroke="hsl(228.5, 77.2%, 51.5%)" stroke-width="1.5"></path><path d="M973.41 838.55L853.57 659.24" stroke="hsl(228.5, 77.2%, 51.5%)" stroke-width="1.5"></path><path d="M973.41 838.55L1146.74 708.84" stroke="hsl(228.5, 77.2%, 51.5%)" stroke-width="1.5"></path><path d="M1120.8 371.94L1120.8 371.94" stroke="hsl(228.5, 77.2%, 51.5%)" stroke-width="1.5"></path><path d="M1120.8 371.94L1243.33 407.44" stroke="hsl(228.5, 77.2%, 51.5%)" stroke-width="1.5"></path><path d="M1120.8 371.94L978.65 350.39" stroke="hsl(228.5, 77.2%, 51.5%)" stroke-width="1.5"></path><path d="M1120.8 371.94L1134.87 226.18" stroke="hsl(228.5, 77.2%, 51.5%)" stroke-width="1.5"></path><path d="M1120.8 371.94L1151.83 520.96" stroke="hsl(228.5, 77.2%, 51.5%)" stroke-width="1.5"></path><path d="M1120.8 371.94L954.5 511.8" stroke="hsl(228.5, 77.2%, 51.5%)" stroke-width="1.5"></path><path d="M1120.8 371.94L1254.23 197.92" stroke="hsl(228.5, 77.2%, 51.5%)" stroke-width="1.5"></path><path d="M1301.5 -100.09L1301.5 -100.09" stroke="hsl(228.5, 77.2%, 51.5%)" stroke-width="1.5"></path><path d="M1301.5 -100.09L1389.21 -94.41" stroke="hsl(228.5, 77.2%, 51.5%)" stroke-width="1.5"></path><path d="M1301.5 -100.09L1298.89 40.08" stroke="hsl(228.5, 77.2%, 51.5%)" stroke-width="1.5"></path><path d="M1301.5 -100.09L1590.67 -81.94" stroke="hsl(228.5, 77.2%, 51.5%)" stroke-width="1.5"></path><path d="M1289.2 649.55L1289.2 649.55" stroke="hsl(228.5, 77.2%, 51.5%)" stroke-width="1.5"></path><path d="M1289.2 649.55L1275.07 528.95" stroke="hsl(228.5, 77.2%, 51.5%)" stroke-width="1.5"></path><path d="M1289.2 649.55L1423.65 646.24" stroke="hsl(228.5, 77.2%, 51.5%)" stroke-width="1.5"></path><path d="M1398.52 242.61L1398.52 242.61" stroke="hsl(228.5, 77.2%, 51.5%)" stroke-width="1.5"></path><path d="M1398.52 242.61L1254.23 197.92" stroke="hsl(228.5, 77.2%, 51.5%)" stroke-width="1.5"></path><path d="M1398.52 242.61L1584.28 227.86" stroke="hsl(228.5, 77.2%, 51.5%)" stroke-width="1.5"></path><path d="M1398.52 242.61L1298.89 40.08" stroke="hsl(228.5, 77.2%, 51.5%)" stroke-width="1.5"></path><path d="M1587.92 100.62L1587.92 100.62" stroke="hsl(228.5, 77.2%, 51.5%)" stroke-width="1.5"></path><path d="M1587.92 100.62L1584.28 227.86" stroke="hsl(228.5, 77.2%, 51.5%)" stroke-width="1.5"></path><path d="M1587.92 100.62L1590.67 -81.94" stroke="hsl(228.5, 77.2%, 51.5%)" stroke-width="1.5"></path><path d="M1587.92 100.62L1398.52 242.61" stroke="hsl(228.5, 77.2%, 51.5%)" stroke-width="1.5"></path><path d="M1587.92 100.62L1389.21 -94.41" stroke="hsl(228.5, 77.2%, 51.5%)" stroke-width="1.5"></path><path d="M1587.92 100.62L1298.89 40.08" stroke="hsl(228.5, 77.2%, 51.5%)" stroke-width="1.5"></path><path d="M-100.08 701.26L-100.08 701.26" stroke="hsl(228.5, 77.2%, 51.5%)" stroke-width="1.5"></path><path d="M-100.08 701.26L98.93 667.29" stroke="hsl(228.5, 77.2%, 51.5%)" stroke-width="1.5"></path><path d="M-100.08 701.26L64.94 852.19" stroke="hsl(228.5, 77.2%, 51.5%)" stroke-width="1.5"></path><path d="M-100.08 701.26L236.66 642.17" stroke="hsl(228.5, 77.2%, 51.5%)" stroke-width="1.5"></path><path d="M-100.08 701.26L259.26 793.01" stroke="hsl(228.5, 77.2%, 51.5%)" stroke-width="1.5"></path><path d="M-100.08 701.26L400.87 688.24" stroke="hsl(228.5, 77.2%, 51.5%)" stroke-width="1.5"></path><path d="M98.93 667.29L98.93 667.29" stroke="hsl(228.5, 77.2%, 51.5%)" stroke-width="1.5"></path><path d="M98.93 667.29L236.66 642.17" stroke="hsl(228.5, 77.2%, 51.5%)" stroke-width="1.5"></path><path d="M98.93 667.29L64.94 852.19" stroke="hsl(228.5, 77.2%, 51.5%)" stroke-width="1.5"></path><path d="M98.93 667.29L259.26 793.01" stroke="hsl(228.5, 77.2%, 51.5%)" stroke-width="1.5"></path><path d="M64.94 852.19L64.94 852.19" stroke="hsl(228.5, 77.2%, 51.5%)" stroke-width="1.5"></path><path d="M64.94 852.19L259.26 793.01" stroke="hsl(228.5, 77.2%, 51.5%)" stroke-width="1.5"></path><path d="M236.66 642.17L236.66 642.17" stroke="hsl(228.5, 77.2%, 51.5%)" stroke-width="1.5"></path><path d="M236.66 642.17L259.26 793.01" stroke="hsl(228.5, 77.2%, 51.5%)" stroke-width="1.5"></path><path d="M236.66 642.17L400.87 688.24" stroke="hsl(228.5, 77.2%, 51.5%)" stroke-width="1.5"></path><path d="M236.66 642.17L408.74 830.96" stroke="hsl(228.5, 77.2%, 51.5%)" stroke-width="1.5"></path><path d="M236.66 642.17L64.94 852.19" stroke="hsl(228.5, 77.2%, 51.5%)" stroke-width="1.5"></path><path d="M259.26 793.01L259.26 793.01" stroke="hsl(228.5, 77.2%, 51.5%)" stroke-width="1.5"></path><path d="M259.26 793.01L408.74 830.96" stroke="hsl(228.5, 77.2%, 51.5%)" stroke-width="1.5"></path><path d="M259.26 793.01L400.87 688.24" stroke="hsl(228.5, 77.2%, 51.5%)" stroke-width="1.5"></path><path d="M400.87 688.24L400.87 688.24" stroke="hsl(228.5, 77.2%, 51.5%)" stroke-width="1.5"></path><path d="M400.87 688.24L529.16 644.9" stroke="hsl(228.5, 77.2%, 51.5%)" stroke-width="1.5"></path><path d="M400.87 688.24L408.74 830.96" stroke="hsl(228.5, 77.2%, 51.5%)" stroke-width="1.5"></path><path d="M400.87 688.24L511.14 789.61" stroke="hsl(228.5, 77.2%, 51.5%)" stroke-width="1.5"></path><path d="M408.74 830.96L408.74 830.96" stroke="hsl(228.5, 77.2%, 51.5%)" stroke-width="1.5"></path><path d="M408.74 830.96L511.14 789.61" stroke="hsl(228.5, 77.2%, 51.5%)" stroke-width="1.5"></path><path d="M408.74 830.96L529.16 644.9" stroke="hsl(228.5, 77.2%, 51.5%)" stroke-width="1.5"></path><path d="M408.74 830.96L710.86 837.16" stroke="hsl(228.5, 77.2%, 51.5%)" stroke-width="1.5"></path><path d="M529.16 644.9L529.16 644.9" stroke="hsl(228.5, 77.2%, 51.5%)" stroke-width="1.5"></path><path d="M529.16 644.9L511.14 789.61" stroke="hsl(228.5, 77.2%, 51.5%)" stroke-width="1.5"></path><path d="M529.16 644.9L684.03 689.58" stroke="hsl(228.5, 77.2%, 51.5%)" stroke-width="1.5"></path><path d="M511.14 789.61L511.14 789.61" stroke="hsl(228.5, 77.2%, 51.5%)" stroke-width="1.5"></path><path d="M511.14 789.61L684.03 689.58" stroke="hsl(228.5, 77.2%, 51.5%)" stroke-width="1.5"></path><path d="M698.04 495.73L698.04 495.73" stroke="hsl(228.5, 77.2%, 51.5%)" stroke-width="1.5"></path><path d="M698.04 495.73L684.03 689.58" stroke="hsl(228.5, 77.2%, 51.5%)" stroke-width="1.5"></path><path d="M698.04 495.73L529.16 644.9" stroke="hsl(228.5, 77.2%, 51.5%)" stroke-width="1.5"></path><path d="M698.04 495.73L853.57 659.24" stroke="hsl(228.5, 77.2%, 51.5%)" stroke-width="1.5"></path><path d="M698.04 495.73L954.5 511.8" stroke="hsl(228.5, 77.2%, 51.5%)" stroke-width="1.5"></path><path d="M698.04 495.73L953.74 677.33" stroke="hsl(228.5, 77.2%, 51.5%)" stroke-width="1.5"></path><path d="M684.03 689.58L684.03 689.58" stroke="hsl(228.5, 77.2%, 51.5%)" stroke-width="1.5"></path><path d="M684.03 689.58L710.86 837.16" stroke="hsl(228.5, 77.2%, 51.5%)" stroke-width="1.5"></path><path d="M684.03 689.58L853.57 659.24" stroke="hsl(228.5, 77.2%, 51.5%)" stroke-width="1.5"></path><path d="M684.03 689.58L798.44 845.56" stroke="hsl(228.5, 77.2%, 51.5%)" stroke-width="1.5"></path><path d="M710.86 837.16L710.86 837.16" stroke="hsl(228.5, 77.2%, 51.5%)" stroke-width="1.5"></path><path d="M710.86 837.16L511.14 789.61" stroke="hsl(228.5, 77.2%, 51.5%)" stroke-width="1.5"></path><path d="M710.86 837.16L853.57 659.24" stroke="hsl(228.5, 77.2%, 51.5%)" stroke-width="1.5"></path><path d="M710.86 837.16L973.41 838.55" stroke="hsl(228.5, 77.2%, 51.5%)" stroke-width="1.5"></path><path d="M710.86 837.16L529.16 644.9" stroke="hsl(228.5, 77.2%, 51.5%)" stroke-width="1.5"></path><path d="M853.57 659.24L853.57 659.24" stroke="hsl(228.5, 77.2%, 51.5%)" stroke-width="1.5"></path><path d="M853.57 659.24L953.74 677.33" stroke="hsl(228.5, 77.2%, 51.5%)" stroke-width="1.5"></path><path d="M978.65 350.39L978.65 350.39" stroke="hsl(228.5, 77.2%, 51.5%)" stroke-width="1.5"></path><path d="M978.65 350.39L954.5 511.8" stroke="hsl(228.5, 77.2%, 51.5%)" stroke-width="1.5"></path><path d="M954.5 511.8L954.5 511.8" stroke="hsl(228.5, 77.2%, 51.5%)" stroke-width="1.5"></path><path d="M954.5 511.8L953.74 677.33" stroke="hsl(228.5, 77.2%, 51.5%)" stroke-width="1.5"></path><path d="M954.5 511.8L853.57 659.24" stroke="hsl(228.5, 77.2%, 51.5%)" stroke-width="1.5"></path><path d="M954.5 511.8L1151.83 520.96" stroke="hsl(228.5, 77.2%, 51.5%)" stroke-width="1.5"></path><path d="M953.74 677.33L953.74 677.33" stroke="hsl(228.5, 77.2%, 51.5%)" stroke-width="1.5"></path><path d="M1134.87 226.18L1134.87 226.18" stroke="hsl(228.5, 77.2%, 51.5%)" stroke-width="1.5"></path><path d="M1134.87 226.18L1254.23 197.92" stroke="hsl(228.5, 77.2%, 51.5%)" stroke-width="1.5"></path><path d="M1134.87 226.18L978.65 350.39" stroke="hsl(228.5, 77.2%, 51.5%)" stroke-width="1.5"></path><path d="M1134.87 226.18L1243.33 407.44" stroke="hsl(228.5, 77.2%, 51.5%)" stroke-width="1.5"></path><path d="M1151.83 520.96L1151.83 520.96" stroke="hsl(228.5, 77.2%, 51.5%)" stroke-width="1.5"></path><path d="M1151.83 520.96L1275.07 528.95" stroke="hsl(228.5, 77.2%, 51.5%)" stroke-width="1.5"></path><path d="M1151.83 520.96L1243.33 407.44" stroke="hsl(228.5, 77.2%, 51.5%)" stroke-width="1.5"></path><path d="M1146.74 708.84L1146.74 708.84" stroke="hsl(228.5, 77.2%, 51.5%)" stroke-width="1.5"></path><path d="M1146.74 708.84L1122.04 844.97" stroke="hsl(228.5, 77.2%, 51.5%)" stroke-width="1.5"></path><path d="M1146.74 708.84L1289.2 649.55" stroke="hsl(228.5, 77.2%, 51.5%)" stroke-width="1.5"></path><path d="M1146.74 708.84L1151.83 520.96" stroke="hsl(228.5, 77.2%, 51.5%)" stroke-width="1.5"></path><path d="M1146.74 708.84L953.74 677.33" stroke="hsl(228.5, 77.2%, 51.5%)" stroke-width="1.5"></path><path d="M1122.04 844.97L1122.04 844.97" stroke="hsl(228.5, 77.2%, 51.5%)" stroke-width="1.5"></path><path d="M1122.04 844.97L953.74 677.33" stroke="hsl(228.5, 77.2%, 51.5%)" stroke-width="1.5"></path><path d="M1298.89 40.08L1298.89 40.08" stroke="hsl(228.5, 77.2%, 51.5%)" stroke-width="1.5"></path><path d="M1298.89 40.08L1389.21 -94.41" stroke="hsl(228.5, 77.2%, 51.5%)" stroke-width="1.5"></path><path d="M1254.23 197.92L1254.23 197.92" stroke="hsl(228.5, 77.2%, 51.5%)" stroke-width="1.5"></path><path d="M1243.33 407.44L1243.33 407.44" stroke="hsl(228.5, 77.2%, 51.5%)" stroke-width="1.5"></path><path d="M1243.33 407.44L1275.07 528.95" stroke="hsl(228.5, 77.2%, 51.5%)" stroke-width="1.5"></path><path d="M1275.07 528.95L1275.07 528.95" stroke="hsl(228.5, 77.2%, 51.5%)" stroke-width="1.5"></path><path d="M1275.07 528.95L1394.1 550.71" stroke="hsl(228.5, 77.2%, 51.5%)" stroke-width="1.5"></path><path d="M1389.21 -94.41L1389.21 -94.41" stroke="hsl(228.5, 77.2%, 51.5%)" stroke-width="1.5"></path><path d="M1389.21 -94.41L1590.67 -81.94" stroke="hsl(228.5, 77.2%, 51.5%)" stroke-width="1.5"></path><path d="M1394.1 550.71L1394.1 550.71" stroke="hsl(228.5, 77.2%, 51.5%)" stroke-width="1.5"></path><path d="M1394.1 550.71L1423.65 646.24" stroke="hsl(228.5, 77.2%, 51.5%)" stroke-width="1.5"></path><path d="M1394.1 550.71L1289.2 649.55" stroke="hsl(228.5, 77.2%, 51.5%)" stroke-width="1.5"></path><path d="M1394.1 550.71L1582.23 546.72" stroke="hsl(228.5, 77.2%, 51.5%)" stroke-width="1.5"></path><path d="M1423.65 646.24L1423.65 646.24" stroke="hsl(228.5, 77.2%, 51.5%)" stroke-width="1.5"></path><path d="M1423.65 646.24L1586.95 707.63" stroke="hsl(228.5, 77.2%, 51.5%)" stroke-width="1.5"></path><path d="M1423.65 646.24L1582.23 546.72" stroke="hsl(228.5, 77.2%, 51.5%)" stroke-width="1.5"></path><path d="M1423.65 646.24L1275.07 528.95" stroke="hsl(228.5, 77.2%, 51.5%)" stroke-width="1.5"></path><path d="M1427.6 837.4L1427.6 837.4" stroke="hsl(228.5, 77.2%, 51.5%)" stroke-width="1.5"></path><path d="M1427.6 837.4L1566.16 846.49" stroke="hsl(228.5, 77.2%, 51.5%)" stroke-width="1.5"></path><path d="M1427.6 837.4L1423.65 646.24" stroke="hsl(228.5, 77.2%, 51.5%)" stroke-width="1.5"></path><path d="M1590.67 -81.94L1590.67 -81.94" stroke="hsl(228.5, 77.2%, 51.5%)" stroke-width="1.5"></path><path d="M1590.67 -81.94L1584.28 227.86" stroke="hsl(228.5, 77.2%, 51.5%)" stroke-width="1.5"></path><path d="M1590.67 -81.94L1298.89 40.08" stroke="hsl(228.5, 77.2%, 51.5%)" stroke-width="1.5"></path><path d="M1590.67 -81.94L1398.52 242.61" stroke="hsl(228.5, 77.2%, 51.5%)" stroke-width="1.5"></path><path d="M1584.28 227.86L1584.28 227.86" stroke="hsl(228.5, 77.2%, 51.5%)" stroke-width="1.5"></path><path d="M1584.28 227.86L1612.38 399.28" stroke="hsl(228.5, 77.2%, 51.5%)" stroke-width="1.5"></path><path d="M1584.28 227.86L1582.23 546.72" stroke="hsl(228.5, 77.2%, 51.5%)" stroke-width="1.5"></path><path d="M1612.38 399.28L1612.38 399.28" stroke="hsl(228.5, 77.2%, 51.5%)" stroke-width="1.5"></path><path d="M1612.38 399.28L1582.23 546.72" stroke="hsl(228.5, 77.2%, 51.5%)" stroke-width="1.5"></path><path d="M1612.38 399.28L1398.52 242.61" stroke="hsl(228.5, 77.2%, 51.5%)" stroke-width="1.5"></path><path d="M1582.23 546.72L1582.23 546.72" stroke="hsl(228.5, 77.2%, 51.5%)" stroke-width="1.5"></path><path d="M1582.23 546.72L1586.95 707.63" stroke="hsl(228.5, 77.2%, 51.5%)" stroke-width="1.5"></path><path d="M1586.95 707.63L1586.95 707.63" stroke="hsl(228.5, 77.2%, 51.5%)" stroke-width="1.5"></path><path d="M1586.95 707.63L1566.16 846.49" stroke="hsl(228.5, 77.2%, 51.5%)" stroke-width="1.5"></path><path d="M1586.95 707.63L1427.6 837.4" stroke="hsl(228.5, 77.2%, 51.5%)" stroke-width="1.5"></path><path d="M1566.16 846.49L1566.16 846.49" stroke="hsl(228.5, 77.2%, 51.5%)" stroke-width="1.5"></path><path d="M1566.16 846.49L1423.65 646.24" stroke="hsl(228.5, 77.2%, 51.5%)" stroke-width="1.5"></path><path d="M1566.16 846.49L1582.23 546.72" stroke="hsl(228.5, 77.2%, 51.5%)" stroke-width="1.5"></path><circle r="25" cx="-47.49" cy="823.11" fill="url(#SvgjsRadialGradient1347)"></circle><circle r="25" cx="844.15" cy="526.97" fill="url(#SvgjsRadialGradient1347)"></circle><circle r="25" cx="798.44" cy="845.56" fill="url(#SvgjsRadialGradient1347)"></circle><circle r="25" cx="973.41" cy="838.55" fill="url(#SvgjsRadialGradient1347)"></circle><circle r="25" cx="1120.8" cy="371.94" fill="url(#SvgjsRadialGradient1347)"></circle><circle r="25" cx="1301.5" cy="-100.09" fill="url(#SvgjsRadialGradient1347)"></circle><circle r="25" cx="1289.2" cy="649.55" fill="url(#SvgjsRadialGradient1347)"></circle><circle r="25" cx="1398.52" cy="242.61" fill="url(#SvgjsRadialGradient1347)"></circle><circle r="25" cx="1587.92" cy="100.62" fill="url(#SvgjsRadialGradient1347)"></circle><circle r="5" cx="-100.08" cy="701.26" fill="#8b9ad9"></circle><circle r="5" cx="98.93" cy="667.29" fill="#8b9ad9"></circle><circle r="5" cx="64.94" cy="852.19" fill="#8b9ad9"></circle><circle r="5" cx="236.66" cy="642.17" fill="#8b9ad9"></circle><circle r="5" cx="259.26" cy="793.01" fill="#8b9ad9"></circle><circle r="5" cx="400.87" cy="688.24" fill="#8b9ad9"></circle><circle r="5" cx="408.74" cy="830.96" fill="#8b9ad9"></circle><circle r="5" cx="529.16" cy="644.9" fill="#8b9ad9"></circle><circle r="5" cx="511.14" cy="789.61" fill="#8b9ad9"></circle><circle r="5" cx="698.04" cy="495.73" fill="#8b9ad9"></circle><circle r="5" cx="684.03" cy="689.58" fill="#8b9ad9"></circle><circle r="5" cx="710.86" cy="837.16" fill="#8b9ad9"></circle><circle r="5" cx="853.57" cy="659.24" fill="#8b9ad9"></circle><circle r="5" cx="978.65" cy="350.39" fill="#8b9ad9"></circle><circle r="5" cx="954.5" cy="511.8" fill="#8b9ad9"></circle><circle r="5" cx="953.74" cy="677.33" fill="#8b9ad9"></circle><circle r="5" cx="1134.87" cy="226.18" fill="#8b9ad9"></circle><circle r="5" cx="1151.83" cy="520.96" fill="#8b9ad9"></circle><circle r="5" cx="1146.74" cy="708.84" fill="#8b9ad9"></circle><circle r="5" cx="1122.04" cy="844.97" fill="#8b9ad9"></circle><circle r="5" cx="1298.89" cy="40.08" fill="#8b9ad9"></circle><circle r="5" cx="1254.23" cy="197.92" fill="#8b9ad9"></circle><circle r="5" cx="1243.33" cy="407.44" fill="#8b9ad9"></circle><circle r="5" cx="1275.07" cy="528.95" fill="#8b9ad9"></circle><circle r="5" cx="1389.21" cy="-94.41" fill="#8b9ad9"></circle><circle r="5" cx="1394.1" cy="550.71" fill="#8b9ad9"></circle><circle r="5" cx="1423.65" cy="646.24" fill="#8b9ad9"></circle><circle r="5" cx="1427.6" cy="837.4" fill="#8b9ad9"></circle><circle r="5" cx="1590.67" cy="-81.94" fill="#8b9ad9"></circle><circle r="5" cx="1584.28" cy="227.86" fill="#8b9ad9"></circle><circle r="5" cx="1612.38" cy="399.28" fill="#8b9ad9"></circle><circle r="5" cx="1582.23" cy="546.72" fill="#8b9ad9"></circle><circle r="5" cx="1586.95" cy="707.63" fill="#8b9ad9"></circle><circle r="5" cx="1566.16" cy="846.49" fill="#8b9ad9"></circle></g><defs><mask id="SvgjsMask1346"><rect width="1440" height="727" fill="#ffffff"></rect></mask><radialGradient id="SvgjsRadialGradient1347"><stop stop-color="#ffffff" offset="0.1"></stop><stop stop-color="#1735b3" offset="0.2"></stop><stop stop-color="rgba(23, 53, 179, 0)" offset="1"></stop></radialGradient></defs></svg>